<svg width="37" height="37" viewBox="0 0 37 37" fill="none" xmlns="http://www.w3.org/2000/svg">
<path d="M16.9577 35.111C18.0388 35.111 18.9153 34.1908 18.9153 33.0555C18.9153 31.9202 18.0388 31 16.9577 31C15.8764 31 15 31.9202 15 33.0555C15 34.1908 15.8764 35.111 16.9577 35.111Z" fill="black"/>
<path d="M29.6826 35.111C30.7638 35.111 31.6402 34.1908 31.6402 33.0555C31.6402 31.9202 30.7638 31 29.6826 31C28.6013 31 27.7249 31.9202 27.7249 33.0555C27.7249 34.1908 28.6013 35.111 29.6826 35.111Z" fill="black"/>
<path d="M2 4H11.4606C11.912 4 12.3074 4.30244 12.4256 4.7381L13.1549 7.42553M13.1549 7.42553H33.8229C34.4397 7.42553 34.9095 7.97845 34.8098 8.58714L32.8133 20.7786C32.7342 21.2621 32.3164 21.617 31.8265 21.617H13.1549M13.1549 7.42553H10.1489C9.53211 7.42553 9.06237 7.97845 9.16205 8.58713L11.1585 20.7786C11.2377 21.2621 11.6554 21.617 12.1453 21.617H13.1549M13.1549 21.617L14.3552 26.2508C14.4695 26.6919 14.8676 27 15.3233 27H32.6761" stroke="black" stroke-width="2.5" stroke-linecap="round"/>
</svg>
