<svg width="30" height="35" viewBox="0 0 30 35" fill="none" xmlns="http://www.w3.org/2000/svg">
<path d="M12.8571 0C10.5 0 8.57143 1.92857 8.57143 4.28571H4.28571C1.92857 4.28571 0 6.21429 0 8.57143H30C30 6.21429 28.0714 4.28571 25.7143 4.28571H21.4286C21.4286 1.92857 19.5 0 17.1429 0H12.8571ZM4.28571 12.8571V33.4714C4.28571 33.9429 4.62857 34.2857 5.1 34.2857H24.9429C25.4143 34.2857 25.7571 33.9429 25.7571 33.4714V12.8571H21.4714V27.8571C21.4714 29.0571 20.5286 30 19.3286 30C18.1286 30 17.1857 29.0571 17.1857 27.8571V12.8571H12.9V27.8571C12.9 29.0571 11.9571 30 10.7571 30C9.55714 30 8.61429 29.0571 8.61429 27.8571V12.8571H4.32857H4.28571Z" fill="white"/>
</svg>
