<svg width="30" height="19" viewBox="0 0 30 19" fill="none" xmlns="http://www.w3.org/2000/svg">
<path d="M29.979 0.745594C29.972 0.689072 29.96 0.635044 29.939 0.580184C29.918 0.526155 29.891 0.477114 29.857 0.428072C29.839 0.402305 29.835 0.372382 29.814 0.347445C29.798 0.328328 29.773 0.319184 29.755 0.301729C29.71 0.257675 29.66 0.221102 29.606 0.186191C29.556 0.153774 29.508 0.12385 29.452 0.099745C29.397 0.0764711 29.34 0.0615096 29.28 0.0465479C29.213 0.0299237 29.147 0.0174553 29.077 0.012468C29.05 0.0108056 29.027 0 29 0H1C0.973 0 0.95 0.0108055 0.923 0.0132992C0.853 0.0174552 0.787 0.0307549 0.719 0.047379C0.66 0.0623408 0.603 0.0764711 0.549 0.099745C0.492 0.12385 0.444 0.154605 0.393 0.187853C0.339 0.222764 0.29 0.258506 0.245 0.30256C0.227 0.320015 0.202 0.329159 0.186 0.348277C0.165 0.373213 0.16 0.402305 0.143 0.428904C0.109 0.477114 0.082 0.526155 0.061 0.581015C0.04 0.635875 0.028 0.689072 0.021 0.745594C0.017 0.775518 0 0.801285 0 0.831209V17.4554C0 17.9142 0.448 18.2866 1 18.2866H29C29.552 18.2866 30 17.9142 30 17.4554V0.831209C30 0.801285 29.983 0.775518 29.979 0.745594ZM25.879 1.66242L15 8.12174L4.121 1.66242H25.879ZM2 16.6242V2.44625L14.419 9.8199C14.593 9.92297 14.796 9.97451 15 9.97451C15.204 9.97451 15.407 9.92297 15.581 9.8199L28 2.44625V16.6242H2Z" fill="#6F6F6F"/>
</svg>
