<svg width="30" height="36" viewBox="0 0 30 36" fill="none" xmlns="http://www.w3.org/2000/svg">
<g clip-path="url(#clip0_29_193)">
<path d="M18.6319 8.84072C18.673 8.78524 18.8649 8.60396 19.6187 8.60396L22.0902 8.60286C22.8942 8.60286 23.5481 7.81953 23.5481 6.85658V1.68311C23.5481 0.721803 22.8952 -0.0615234 22.0925 -0.0631714L18.4214 -0.0703125C16.1556 -0.0703125 14.2295 0.8248 12.8512 2.51862C11.4791 4.20475 10.7538 6.55858 10.7538 9.32521V12.1155H7.94538C7.14135 12.1155 6.4873 12.8988 6.4873 13.8618V19.4335C6.4873 20.3964 7.14135 21.1798 7.94538 21.1798H10.7538V34.1835C10.7538 35.1464 11.4078 35.9298 12.2118 35.9298H17.0255C17.8295 35.9298 18.4835 35.1464 18.4835 34.1835V21.18H21.9164C22.7204 21.18 23.3742 20.3964 23.3742 19.434L23.3761 13.862C23.3761 13.2295 23.0887 12.6442 22.6259 12.3347C22.4115 12.1913 22.162 12.1155 21.9047 12.1155H18.4835V9.91106C18.4835 9.19255 18.5643 8.93245 18.6319 8.84072Z" fill="#5B5B5B"/>
</g>
<defs>
<clipPath id="clip0_29_193">
<rect width="30" height="36" fill="white"/>
</clipPath>
</defs>
</svg>
