<svg width="34" height="39" viewBox="0 0 34 39" fill="none" xmlns="http://www.w3.org/2000/svg">
<g clip-path="url(#clip0_29_195)">
<path d="M28.3333 0H5.66667C4.16377 0 2.72243 0.547856 1.65973 1.52304C0.597022 2.49823 0 3.82087 0 5.2L0 26C0 27.3791 0.597022 28.7018 1.65973 29.677C2.72243 30.6521 4.16377 31.2 5.66667 31.2H28.3333C29.8362 31.2 31.2776 30.6521 32.3403 29.677C33.403 28.7018 34 27.3791 34 26V5.2C34 3.82087 33.403 2.49823 32.3403 1.52304C31.2776 0.547856 29.8362 0 28.3333 0V0ZM31.1667 26C31.1667 26.6896 30.8682 27.3509 30.3368 27.8385C29.8054 28.3261 29.0848 28.6 28.3333 28.6H5.66667C4.91522 28.6 4.19455 28.3261 3.6632 27.8385C3.13184 27.3509 2.83333 26.6896 2.83333 26V5.2C2.83333 4.51044 3.13184 3.84912 3.6632 3.36152C4.19455 2.87393 4.91522 2.6 5.66667 2.6H28.3333C29.0848 2.6 29.8054 2.87393 30.3368 3.36152C30.8682 3.84912 31.1667 4.51044 31.1667 5.2V26Z" fill="#5B5B5B"/>
<path d="M17 7.80005C15.3189 7.80005 13.6755 8.25751 12.2777 9.11459C10.8798 9.97166 9.79037 11.1899 9.14703 12.6151C8.50368 14.0404 8.33535 15.6087 8.66333 17.1218C8.9913 18.6348 9.80085 20.0246 10.9896 21.1155C12.1783 22.2063 13.6929 22.9492 15.3417 23.2502C16.9906 23.5511 18.6996 23.3967 20.2528 22.8063C21.806 22.2159 23.1335 21.2162 24.0675 19.9335C25.0015 18.6508 25.5 17.1427 25.5 15.6C25.5 13.5314 24.6045 11.5474 23.0104 10.0846C21.4164 8.62183 19.2543 7.80005 17 7.80005ZM17 20.8C15.8792 20.8 14.7837 20.4951 13.8518 19.9237C12.9199 19.3523 12.1936 18.5402 11.7647 17.59C11.3358 16.6398 11.2236 15.5943 11.4422 14.5856C11.6609 13.5769 12.2006 12.6503 12.9931 11.9231C13.7856 11.1959 14.7953 10.7006 15.8945 10.5C16.9937 10.2993 18.1331 10.4023 19.1685 10.7959C20.204 11.1895 21.089 11.8559 21.7117 12.7111C22.3343 13.5662 22.6667 14.5716 22.6667 15.6C22.6667 16.9792 22.0696 18.3018 21.0069 19.277C19.9442 20.2522 18.5029 20.8 17 20.8Z" fill="#5B5B5B"/>
<path d="M26.2083 9.09995C27.3819 9.09995 28.3333 8.22691 28.3333 7.14995C28.3333 6.073 27.3819 5.19995 26.2083 5.19995C25.0346 5.19995 24.0833 6.073 24.0833 7.14995C24.0833 8.22691 25.0346 9.09995 26.2083 9.09995Z" fill="#5B5B5B"/>
</g>
<defs>
<clipPath id="clip0_29_195">
<rect width="34" height="39" fill="white"/>
</clipPath>
</defs>
</svg>
