<svg width="62" height="64" viewBox="0 0 62 64" fill="none" xmlns="http://www.w3.org/2000/svg">
<path d="M31.6769 33.0039C31.2548 38.7331 35.6495 40.0852 39.2226 45.4483C44.5393 53.1444 49.7779 51.8117 51.2529 47.0028C52.6569 42.3809 48.7366 38.3942 49.0952 33.2941C49.4538 28.1939 54.1287 24.1906 53.4567 19.4964C52.7848 14.8022 47.7218 13.3637 41.1799 20.8999C36.7477 26.1109 32.2484 27.343 31.6769 33.0039Z" fill="#FFDC25"/>
<path d="M24.1147 17.6258C27.4271 20.8919 31.7244 21.1042 33.6755 18.2731C35.6265 15.442 34.5075 10.5506 31.1242 7.47106C27.8118 4.20496 23.5145 3.99261 21.5635 6.82374C19.6833 9.46827 20.8023 14.3597 24.1147 17.6258Z" fill="#FFAA00"/>
<path d="M14.1681 31.7974C18.7 32.7739 23.1088 30.8478 24.0078 27.0985C24.8359 23.5358 21.8856 19.7789 17.2045 18.7342C12.6726 17.7577 8.26381 19.6838 7.36483 23.4331C6.53672 26.9957 9.63622 30.8209 14.1681 31.7974Z" fill="#FFAA00"/>
<path d="M14.9283 49.1365C19.4602 50.113 23.869 48.1869 24.768 44.4376C25.5961 40.875 22.6458 37.118 17.9648 36.0733C13.4329 35.0968 9.02406 37.0229 8.12508 40.7722C7.29697 44.3349 10.3965 48.16 14.9283 49.1365Z" fill="#FFAA00"/>
</svg>
